<mxfile host="app.diagrams.net" modified="2024-05-22T06:40:31.624Z" agent="Mozilla/5.0 (Windows NT 10.0; Win64; x64) AppleWebKit/537.36 (KHTML, like Gecko) Chrome/124.0.0.0 Safari/537.36" etag="7rWsGS-yl-PDRgCyvcFo" version="24.4.4" type="github">
  <diagram name="Page-1" id="tF3E_B_lZPJxgtK75m3y">
    <mxGraphModel dx="1615" dy="803" grid="1" gridSize="10" guides="1" tooltips="1" connect="1" arrows="1" fold="1" page="1" pageScale="1" pageWidth="850" pageHeight="1100" math="0" shadow="0">
      <root>
        <mxCell id="0" />
        <mxCell id="1" parent="0" />
        <mxCell id="eu09HeMAA3cm1erLAvb3-6" value="" style="swimlane;startSize=0;" vertex="1" parent="1">
          <mxGeometry x="230" y="140" width="490" height="730" as="geometry" />
        </mxCell>
        <mxCell id="eu09HeMAA3cm1erLAvb3-15" value="Перегляд сайту" style="ellipse;whiteSpace=wrap;html=1;" vertex="1" parent="eu09HeMAA3cm1erLAvb3-6">
          <mxGeometry x="20" y="30" width="120" height="40" as="geometry" />
        </mxCell>
        <mxCell id="eu09HeMAA3cm1erLAvb3-16" value="Бронювання&amp;nbsp;" style="ellipse;whiteSpace=wrap;html=1;" vertex="1" parent="eu09HeMAA3cm1erLAvb3-6">
          <mxGeometry x="15" y="100" width="130" height="50" as="geometry" />
        </mxCell>
        <mxCell id="eu09HeMAA3cm1erLAvb3-35" value="" style="edgeStyle=orthogonalEdgeStyle;rounded=0;orthogonalLoop=1;jettySize=auto;html=1;" edge="1" parent="eu09HeMAA3cm1erLAvb3-6">
          <mxGeometry relative="1" as="geometry">
            <mxPoint x="231.27276877189797" y="230.0769230769231" as="sourcePoint" />
            <mxPoint x="100" y="150" as="targetPoint" />
            <Array as="points">
              <mxPoint x="100" y="230" />
            </Array>
          </mxGeometry>
        </mxCell>
        <mxCell id="eu09HeMAA3cm1erLAvb3-18" value="Бронювання через телефон" style="ellipse;whiteSpace=wrap;html=1;" vertex="1" parent="eu09HeMAA3cm1erLAvb3-6">
          <mxGeometry x="210" y="210" width="130" height="50" as="geometry" />
        </mxCell>
        <mxCell id="eu09HeMAA3cm1erLAvb3-34" value="" style="edgeStyle=orthogonalEdgeStyle;rounded=0;orthogonalLoop=1;jettySize=auto;html=1;" edge="1" parent="eu09HeMAA3cm1erLAvb3-6" source="eu09HeMAA3cm1erLAvb3-19" target="eu09HeMAA3cm1erLAvb3-27">
          <mxGeometry relative="1" as="geometry" />
        </mxCell>
        <mxCell id="eu09HeMAA3cm1erLAvb3-19" value="Скасування через телефіон" style="ellipse;whiteSpace=wrap;html=1;" vertex="1" parent="eu09HeMAA3cm1erLAvb3-6">
          <mxGeometry x="210" y="330" width="130" height="50" as="geometry" />
        </mxCell>
        <mxCell id="eu09HeMAA3cm1erLAvb3-36" style="edgeStyle=orthogonalEdgeStyle;rounded=0;orthogonalLoop=1;jettySize=auto;html=1;" edge="1" parent="eu09HeMAA3cm1erLAvb3-6" source="eu09HeMAA3cm1erLAvb3-20" target="eu09HeMAA3cm1erLAvb3-16">
          <mxGeometry relative="1" as="geometry">
            <Array as="points">
              <mxPoint x="80" y="280" />
            </Array>
          </mxGeometry>
        </mxCell>
        <mxCell id="eu09HeMAA3cm1erLAvb3-20" value="Бронювання через сайт" style="ellipse;whiteSpace=wrap;html=1;" vertex="1" parent="eu09HeMAA3cm1erLAvb3-6">
          <mxGeometry x="210" y="270" width="130" height="50" as="geometry" />
        </mxCell>
        <mxCell id="eu09HeMAA3cm1erLAvb3-33" value="" style="edgeStyle=orthogonalEdgeStyle;rounded=0;orthogonalLoop=1;jettySize=auto;html=1;" edge="1" parent="eu09HeMAA3cm1erLAvb3-6" source="eu09HeMAA3cm1erLAvb3-21" target="eu09HeMAA3cm1erLAvb3-27">
          <mxGeometry relative="1" as="geometry" />
        </mxCell>
        <mxCell id="eu09HeMAA3cm1erLAvb3-21" value="Скасування через сайт" style="ellipse;whiteSpace=wrap;html=1;" vertex="1" parent="eu09HeMAA3cm1erLAvb3-6">
          <mxGeometry x="210" y="385" width="135" height="50" as="geometry" />
        </mxCell>
        <mxCell id="eu09HeMAA3cm1erLAvb3-27" value="Скасування броні" style="ellipse;whiteSpace=wrap;html=1;" vertex="1" parent="eu09HeMAA3cm1erLAvb3-6">
          <mxGeometry x="15" y="300" width="130" height="50" as="geometry" />
        </mxCell>
        <mxCell id="eu09HeMAA3cm1erLAvb3-62" value="Залишення відгуків, питань, скарг" style="ellipse;whiteSpace=wrap;html=1;" vertex="1" parent="eu09HeMAA3cm1erLAvb3-6">
          <mxGeometry x="140" y="60" width="180" height="50" as="geometry" />
        </mxCell>
        <mxCell id="eu09HeMAA3cm1erLAvb3-67" value="Керування базою даних" style="ellipse;whiteSpace=wrap;html=1;" vertex="1" parent="eu09HeMAA3cm1erLAvb3-6">
          <mxGeometry x="340" width="130" height="50" as="geometry" />
        </mxCell>
        <mxCell id="eu09HeMAA3cm1erLAvb3-68" value="Прийняття відгуків, запитань, скарг" style="ellipse;whiteSpace=wrap;html=1;" vertex="1" parent="eu09HeMAA3cm1erLAvb3-6">
          <mxGeometry x="340" y="60" width="130" height="50" as="geometry" />
        </mxCell>
        <mxCell id="eu09HeMAA3cm1erLAvb3-71" value="Перегляд звітів" style="ellipse;whiteSpace=wrap;html=1;" vertex="1" parent="eu09HeMAA3cm1erLAvb3-6">
          <mxGeometry x="335" y="140" width="140" height="50" as="geometry" />
        </mxCell>
        <mxCell id="eu09HeMAA3cm1erLAvb3-73" value="Чек-ін" style="ellipse;whiteSpace=wrap;html=1;" vertex="1" parent="eu09HeMAA3cm1erLAvb3-6">
          <mxGeometry x="120" y="590" width="135" height="50" as="geometry" />
        </mxCell>
        <mxCell id="eu09HeMAA3cm1erLAvb3-74" value="Чек-аут" style="ellipse;whiteSpace=wrap;html=1;" vertex="1" parent="eu09HeMAA3cm1erLAvb3-6">
          <mxGeometry x="115" y="670" width="140" height="50" as="geometry" />
        </mxCell>
        <mxCell id="eu09HeMAA3cm1erLAvb3-79" value="Керування кімнатами" style="ellipse;whiteSpace=wrap;html=1;" vertex="1" parent="eu09HeMAA3cm1erLAvb3-6">
          <mxGeometry x="270" y="470" width="170" height="50" as="geometry" />
        </mxCell>
        <mxCell id="eu09HeMAA3cm1erLAvb3-80" value="Керування сервісамм" style="ellipse;whiteSpace=wrap;html=1;" vertex="1" parent="eu09HeMAA3cm1erLAvb3-6">
          <mxGeometry x="277.5" y="530" width="155" height="40" as="geometry" />
        </mxCell>
        <mxCell id="eu09HeMAA3cm1erLAvb3-22" style="edgeStyle=orthogonalEdgeStyle;rounded=0;orthogonalLoop=1;jettySize=auto;html=1;entryX=0;entryY=0.5;entryDx=0;entryDy=0;" edge="1" parent="1" source="eu09HeMAA3cm1erLAvb3-9" target="eu09HeMAA3cm1erLAvb3-15">
          <mxGeometry relative="1" as="geometry">
            <Array as="points">
              <mxPoint x="115" y="190" />
            </Array>
          </mxGeometry>
        </mxCell>
        <mxCell id="eu09HeMAA3cm1erLAvb3-29" value="" style="edgeStyle=orthogonalEdgeStyle;rounded=0;orthogonalLoop=1;jettySize=auto;html=1;" edge="1" parent="1" source="eu09HeMAA3cm1erLAvb3-9" target="eu09HeMAA3cm1erLAvb3-16">
          <mxGeometry relative="1" as="geometry">
            <Array as="points">
              <mxPoint x="150" y="265" />
              <mxPoint x="150" y="265" />
            </Array>
          </mxGeometry>
        </mxCell>
        <mxCell id="eu09HeMAA3cm1erLAvb3-66" style="edgeStyle=orthogonalEdgeStyle;rounded=0;orthogonalLoop=1;jettySize=auto;html=1;entryX=0;entryY=0.5;entryDx=0;entryDy=0;" edge="1" parent="1" source="eu09HeMAA3cm1erLAvb3-9" target="eu09HeMAA3cm1erLAvb3-27">
          <mxGeometry relative="1" as="geometry" />
        </mxCell>
        <mxCell id="eu09HeMAA3cm1erLAvb3-76" style="edgeStyle=orthogonalEdgeStyle;rounded=0;orthogonalLoop=1;jettySize=auto;html=1;entryX=0;entryY=0.5;entryDx=0;entryDy=0;" edge="1" parent="1" source="eu09HeMAA3cm1erLAvb3-9" target="eu09HeMAA3cm1erLAvb3-74">
          <mxGeometry relative="1" as="geometry">
            <Array as="points">
              <mxPoint x="90" y="270" />
              <mxPoint x="90" y="835" />
            </Array>
          </mxGeometry>
        </mxCell>
        <mxCell id="eu09HeMAA3cm1erLAvb3-9" value="" style="shape=umlActor;verticalLabelPosition=bottom;verticalAlign=top;html=1;outlineConnect=0;" vertex="1" parent="1">
          <mxGeometry x="100" y="240" width="30" height="60" as="geometry" />
        </mxCell>
        <mxCell id="eu09HeMAA3cm1erLAvb3-64" style="edgeStyle=orthogonalEdgeStyle;rounded=0;orthogonalLoop=1;jettySize=auto;html=1;entryX=0;entryY=0.5;entryDx=0;entryDy=0;" edge="1" parent="1" source="eu09HeMAA3cm1erLAvb3-12" target="eu09HeMAA3cm1erLAvb3-62">
          <mxGeometry relative="1" as="geometry">
            <Array as="points">
              <mxPoint x="130" y="620" />
              <mxPoint x="245" y="620" />
            </Array>
          </mxGeometry>
        </mxCell>
        <mxCell id="eu09HeMAA3cm1erLAvb3-75" style="edgeStyle=orthogonalEdgeStyle;rounded=0;orthogonalLoop=1;jettySize=auto;html=1;entryX=0;entryY=0.5;entryDx=0;entryDy=0;" edge="1" parent="1" source="eu09HeMAA3cm1erLAvb3-12" target="eu09HeMAA3cm1erLAvb3-73">
          <mxGeometry relative="1" as="geometry">
            <Array as="points">
              <mxPoint x="110" y="750" />
              <mxPoint x="350" y="750" />
            </Array>
          </mxGeometry>
        </mxCell>
        <mxCell id="eu09HeMAA3cm1erLAvb3-12" value="Клієнт" style="text;html=1;align=center;verticalAlign=middle;resizable=0;points=[];autosize=1;strokeColor=none;fillColor=none;" vertex="1" parent="1">
          <mxGeometry x="85" y="300" width="60" height="30" as="geometry" />
        </mxCell>
        <mxCell id="eu09HeMAA3cm1erLAvb3-48" value="Працівник" style="text;html=1;align=center;verticalAlign=middle;resizable=0;points=[];autosize=1;strokeColor=none;fillColor=none;" vertex="1" parent="1">
          <mxGeometry x="805" y="490" width="80" height="30" as="geometry" />
        </mxCell>
        <mxCell id="eu09HeMAA3cm1erLAvb3-49" value="Actor" style="shape=umlActor;verticalLabelPosition=middle;verticalAlign=middle;html=1;labelPosition=right;align=left;fontColor=none;noLabel=1;" vertex="1" parent="1">
          <mxGeometry x="830" y="430" width="30" height="60" as="geometry" />
        </mxCell>
        <mxCell id="eu09HeMAA3cm1erLAvb3-82" style="edgeStyle=orthogonalEdgeStyle;rounded=0;orthogonalLoop=1;jettySize=auto;html=1;entryX=1;entryY=0.5;entryDx=0;entryDy=0;" edge="1" parent="1" source="eu09HeMAA3cm1erLAvb3-54" target="eu09HeMAA3cm1erLAvb3-18">
          <mxGeometry relative="1" as="geometry">
            <Array as="points">
              <mxPoint x="790" y="375" />
            </Array>
          </mxGeometry>
        </mxCell>
        <mxCell id="eu09HeMAA3cm1erLAvb3-84" style="edgeStyle=orthogonalEdgeStyle;rounded=0;orthogonalLoop=1;jettySize=auto;html=1;entryX=1;entryY=0.5;entryDx=0;entryDy=0;" edge="1" parent="1" source="eu09HeMAA3cm1erLAvb3-54" target="eu09HeMAA3cm1erLAvb3-20">
          <mxGeometry relative="1" as="geometry">
            <Array as="points">
              <mxPoint x="770" y="435" />
            </Array>
          </mxGeometry>
        </mxCell>
        <mxCell id="eu09HeMAA3cm1erLAvb3-85" style="edgeStyle=orthogonalEdgeStyle;rounded=0;orthogonalLoop=1;jettySize=auto;html=1;entryX=1;entryY=0.5;entryDx=0;entryDy=0;" edge="1" parent="1" source="eu09HeMAA3cm1erLAvb3-54" target="eu09HeMAA3cm1erLAvb3-19">
          <mxGeometry relative="1" as="geometry">
            <Array as="points">
              <mxPoint x="760" y="495" />
            </Array>
          </mxGeometry>
        </mxCell>
        <mxCell id="eu09HeMAA3cm1erLAvb3-91" style="edgeStyle=orthogonalEdgeStyle;rounded=0;orthogonalLoop=1;jettySize=auto;html=1;entryX=1;entryY=0.5;entryDx=0;entryDy=0;" edge="1" parent="1" source="eu09HeMAA3cm1erLAvb3-54" target="eu09HeMAA3cm1erLAvb3-79">
          <mxGeometry relative="1" as="geometry" />
        </mxCell>
        <mxCell id="eu09HeMAA3cm1erLAvb3-92" style="edgeStyle=orthogonalEdgeStyle;rounded=0;orthogonalLoop=1;jettySize=auto;html=1;entryX=1;entryY=0.5;entryDx=0;entryDy=0;" edge="1" parent="1" source="eu09HeMAA3cm1erLAvb3-54" target="eu09HeMAA3cm1erLAvb3-80">
          <mxGeometry relative="1" as="geometry" />
        </mxCell>
        <mxCell id="eu09HeMAA3cm1erLAvb3-94" style="edgeStyle=orthogonalEdgeStyle;rounded=0;orthogonalLoop=1;jettySize=auto;html=1;entryX=1;entryY=0.5;entryDx=0;entryDy=0;" edge="1" parent="1" source="eu09HeMAA3cm1erLAvb3-54" target="eu09HeMAA3cm1erLAvb3-73">
          <mxGeometry relative="1" as="geometry" />
        </mxCell>
        <mxCell id="eu09HeMAA3cm1erLAvb3-96" style="edgeStyle=orthogonalEdgeStyle;rounded=0;orthogonalLoop=1;jettySize=auto;html=1;entryX=1;entryY=0.5;entryDx=0;entryDy=0;" edge="1" parent="1" source="eu09HeMAA3cm1erLAvb3-54" target="eu09HeMAA3cm1erLAvb3-74">
          <mxGeometry relative="1" as="geometry">
            <Array as="points">
              <mxPoint x="775" y="835" />
            </Array>
          </mxGeometry>
        </mxCell>
        <mxCell id="eu09HeMAA3cm1erLAvb3-54" value="Адміністратор" style="shape=umlActor;verticalLabelPosition=bottom;verticalAlign=top;html=1;fontColor=default;" vertex="1" parent="1">
          <mxGeometry x="760" y="730" width="30" height="60" as="geometry" />
        </mxCell>
        <mxCell id="eu09HeMAA3cm1erLAvb3-69" style="edgeStyle=orthogonalEdgeStyle;rounded=0;orthogonalLoop=1;jettySize=auto;html=1;entryX=1;entryY=0.5;entryDx=0;entryDy=0;" edge="1" parent="1" source="eu09HeMAA3cm1erLAvb3-55" target="eu09HeMAA3cm1erLAvb3-67">
          <mxGeometry relative="1" as="geometry">
            <Array as="points">
              <mxPoint x="740" y="165" />
              <mxPoint x="740" y="165" />
            </Array>
          </mxGeometry>
        </mxCell>
        <mxCell id="eu09HeMAA3cm1erLAvb3-70" style="edgeStyle=orthogonalEdgeStyle;rounded=0;orthogonalLoop=1;jettySize=auto;html=1;" edge="1" parent="1" source="eu09HeMAA3cm1erLAvb3-55" target="eu09HeMAA3cm1erLAvb3-68">
          <mxGeometry relative="1" as="geometry">
            <Array as="points">
              <mxPoint x="775" y="240" />
            </Array>
          </mxGeometry>
        </mxCell>
        <mxCell id="eu09HeMAA3cm1erLAvb3-72" style="edgeStyle=orthogonalEdgeStyle;rounded=0;orthogonalLoop=1;jettySize=auto;html=1;entryX=1;entryY=0.5;entryDx=0;entryDy=0;" edge="1" parent="1" source="eu09HeMAA3cm1erLAvb3-55" target="eu09HeMAA3cm1erLAvb3-71">
          <mxGeometry relative="1" as="geometry">
            <Array as="points">
              <mxPoint x="790" y="305" />
            </Array>
          </mxGeometry>
        </mxCell>
        <mxCell id="eu09HeMAA3cm1erLAvb3-55" value="Actor" style="shape=umlActor;verticalLabelPosition=bottom;verticalAlign=top;html=1;fontColor=none;noLabel=1;" vertex="1" parent="1">
          <mxGeometry x="760" y="150" width="30" height="60" as="geometry" />
        </mxCell>
        <mxCell id="eu09HeMAA3cm1erLAvb3-56" value="Менеджер" style="text;html=1;align=center;verticalAlign=middle;resizable=0;points=[];autosize=1;strokeColor=none;fillColor=none;" vertex="1" parent="1">
          <mxGeometry x="735" y="210" width="80" height="30" as="geometry" />
        </mxCell>
        <mxCell id="eu09HeMAA3cm1erLAvb3-60" style="edgeStyle=orthogonalEdgeStyle;rounded=0;orthogonalLoop=1;jettySize=auto;html=1;entryX=0.5;entryY=0;entryDx=0;entryDy=0;entryPerimeter=0;" edge="1" parent="1" source="eu09HeMAA3cm1erLAvb3-55" target="eu09HeMAA3cm1erLAvb3-49">
          <mxGeometry relative="1" as="geometry" />
        </mxCell>
        <mxCell id="eu09HeMAA3cm1erLAvb3-61" style="edgeStyle=orthogonalEdgeStyle;rounded=0;orthogonalLoop=1;jettySize=auto;html=1;entryX=0.55;entryY=1.167;entryDx=0;entryDy=0;entryPerimeter=0;" edge="1" parent="1" source="eu09HeMAA3cm1erLAvb3-54" target="eu09HeMAA3cm1erLAvb3-48">
          <mxGeometry relative="1" as="geometry" />
        </mxCell>
      </root>
    </mxGraphModel>
  </diagram>
</mxfile>
